<svg version="1.1" id="Layer_1" xmlns="http://www.w3.org/2000/svg" xmlns:xlink="http://www.w3.org/1999/xlink" x="0px" y="0px"
	 width="100%" viewBox="0 0 1024 1024" enable-background="new 0 0 1024 1024" xml:space="preserve" fill="#f2c679">
<path opacity="1.000000" stroke="none"
	d="
M482.807892,515.343018
	C458.181244,504.168671 441.315674,485.969727 436.017914,459.946198
	C427.154663,416.408417 449.773651,377.492340 492.985413,365.939728
	C540.271851,353.297821 585.966064,386.432190 591.526367,433.753265
	C596.152405,473.122955 568.503723,511.437683 529.610657,519.455505
	C514.141541,522.644470 498.109985,522.958435 482.807892,515.343018
M568.746338,467.247620
	C582.036926,437.360931 570.190552,399.348480 535.687073,385.657806
	C501.346283,372.031616 467.057739,389.792999 455.388947,421.750885
	C444.766510,450.843018 458.333496,482.027618 481.406281,493.748901
	C481.619629,493.115570 481.950348,492.518311 482.011993,491.894501
	C483.568817,476.139191 484.146332,460.340729 484.021362,444.513794
	C484.009094,442.960724 483.556091,441.516479 482.294373,440.515900
	C478.494812,437.502838 477.922607,433.260437 477.735748,428.846527
	C477.432037,421.671448 478.174164,414.545563 478.758545,407.414551
	C478.890076,405.809479 479.030670,404.066620 481.573059,403.237244
	C484.340210,409.946930 482.418549,417.023254 483.505951,424.206970
	C484.608398,417.056183 482.568481,409.921051 485.984192,403.380157
	C488.899445,404.632935 488.757690,406.982941 488.833801,409.051727
	C488.919098,411.370575 488.583313,413.702026 488.509674,416.030487
	C488.447113,418.008911 488.496765,419.990875 488.496765,421.971252
	C490.708160,415.922546 488.196442,409.328003 491.767487,403.548645
	C494.069153,409.478424 493.219238,415.725739 494.528015,421.673309
	C494.700684,418.508972 494.519562,415.341522 494.752716,412.204895
	C494.975647,409.205902 493.635834,405.639435 496.957733,403.408478
	C498.258026,404.240417 498.229919,405.287933 498.404510,406.256531
	C499.954346,414.856415 499.359039,423.526306 499.096466,432.167419
	C499.010315,435.002808 497.970978,437.968658 495.570953,439.652344
	C492.160278,442.044952 491.968781,445.269318 491.985077,448.871552
	C492.057434,464.857391 493.474335,480.772614 494.340332,496.716949
	C494.514252,499.919403 496.036133,501.556885 499.150421,502.023560
	C508.101562,503.364960 517.032959,503.226471 526.011047,502.173676
	C530.525452,501.644348 532.305908,499.195801 532.571716,494.977661
	C533.554871,479.374359 534.520691,463.769257 535.662659,448.177246
	C535.937500,444.423859 534.770874,441.877655 531.598999,439.829132
	C527.405823,437.121002 525.087708,432.956146 525.185608,428.026703
	C525.335449,420.482300 526.741577,413.111053 530.705139,406.505615
	C535.284302,398.874115 542.291870,398.784302 547.343872,406.223694
	C550.811890,411.330597 551.934631,417.226349 552.901978,423.151825
	C554.073853,430.330292 552.286133,436.454803 545.904297,440.512604
	C543.158203,442.258667 542.201172,444.379639 542.351135,447.551758
	C542.807190,457.197815 542.960999,466.857971 543.397949,476.505157
	C543.650085,482.069977 544.221802,487.620270 544.722107,494.119263
	C556.003540,487.428650 563.162109,478.548553 568.746338,467.247620
z"/>
<path opacity="1.000000" stroke="none"
	d="
M355.266815,596.103882
	C359.294159,612.260620 357.021423,626.568726 345.404083,638.627319
	C339.300903,644.962341 331.514221,647.751587 322.965424,648.134094
	C314.319275,648.520935 305.643250,648.190552 296.986115,648.406860
	C293.417877,648.496094 292.498108,647.082336 292.516663,643.687073
	C292.638794,621.367065 292.649109,599.045593 292.507690,576.725830
	C292.481903,572.659973 293.611847,571.148743 297.920898,571.385620
	C305.395691,571.796448 312.905396,571.572937 320.400482,571.614014
	C337.453033,571.707520 348.955414,579.669495 355.266815,596.103882
M312.946045,582.783752
	C311.287079,582.671997 309.627655,582.566895 307.969299,582.446899
	C305.264496,582.251221 303.965576,583.450317 303.972504,586.213684
	C304.011810,601.854065 304.010895,617.494568 304.023560,633.135071
	C304.025543,635.560486 305.131958,636.880005 307.664398,636.779602
	C313.640686,636.542725 319.620087,636.941467 325.604095,636.241272
	C331.736603,635.523743 335.962708,632.230530 339.470856,627.482178
	C344.312134,620.929382 343.771362,613.385986 343.681000,605.907288
	C343.523865,592.900940 335.161133,583.970703 322.339996,583.150635
	C319.519409,582.970215 316.689240,582.938660 312.946045,582.783752
z"/>
<path opacity="1.000000" stroke="none"
	d="
M521.763062,636.971497
	C521.767334,616.677429 521.878418,596.878418 521.694092,577.082153
	C521.653564,572.731384 522.917358,571.240479 527.379150,571.447266
	C535.848083,571.839661 544.353455,571.422668 552.825378,571.778381
	C564.961975,572.287964 572.632751,579.792969 574.168396,592.116943
	C575.471008,602.570496 569.353577,612.176575 558.859558,615.547363
	C552.930481,617.451904 546.656738,617.196411 540.541748,616.898438
	C535.400879,616.648010 533.926758,618.540894 534.065735,623.497559
	C534.256165,630.295898 533.474426,637.115784 533.457397,643.927368
	C533.444458,649.098633 529.848450,648.020447 526.856445,648.266907
	C523.700562,648.526733 521.634033,647.622742 521.781799,643.955017
	C521.868713,641.796265 521.775757,639.630249 521.763062,636.971497
M534.285156,585.076782
	C534.270630,590.887878 534.334778,596.700623 534.208862,602.509277
	C534.144836,605.465332 535.278381,606.820251 538.298157,606.635498
	C542.929504,606.352112 547.573303,606.259216 552.201233,605.934998
	C558.354004,605.504028 562.498901,600.877197 562.440735,594.692078
	C562.381226,588.365601 558.457520,583.627136 552.514465,583.096130
	C547.895203,582.683411 543.245117,582.586609 538.605957,582.441772
	C536.994751,582.391479 535.175232,582.155273 534.285156,585.076782
z"/>
<path opacity="1.000000" stroke="none"
	d="
M392.679413,616.192871
	C393.745300,601.475708 404.518097,590.888367 418.261810,590.599915
	C435.440155,590.239380 445.331696,598.408813 447.425873,613.985352
	C448.985352,625.584839 447.244507,623.234375 438.779358,623.336609
	C429.614075,623.447327 420.446136,623.320984 411.280029,623.390625
	C409.006714,623.407837 406.074677,622.914307 404.925720,625.227783
	C403.799622,627.495300 405.916321,629.602173 407.155151,631.489807
	C412.526611,639.674683 424.491425,641.362488 433.371735,635.284790
	C439.302094,631.226074 440.115845,631.382263 444.849762,637.487854
	C435.618591,653.066650 408.229919,653.036011 397.606293,637.593933
	C393.175140,631.153015 392.151733,624.146667 392.679413,616.192871
M434.471069,613.434814
	C437.021210,611.252869 435.270355,609.160706 434.154846,607.269470
	C430.779938,601.547791 424.067444,598.875977 416.852234,600.182495
	C410.408386,601.349243 406.550720,605.404663 404.919067,613.643616
	C414.631409,613.643616 424.156738,613.643616 434.471069,613.434814
z"/>
<path opacity="1.000000" stroke="none"
	d="
M665.999634,646.662720
	C659.445496,649.960632 656.319580,648.725830 654.086609,642.188782
	C647.617676,647.559265 640.361450,650.410950 631.956604,648.807129
	C623.414856,647.177185 617.300842,639.940552 616.834167,631.272522
	C616.450012,624.137817 622.386719,616.169922 630.055725,613.710754
	C635.680725,611.906982 641.397522,611.346313 647.299561,612.396118
	C649.593750,612.804199 653.006104,614.200378 654.097839,611.533142
	C655.371765,608.420715 653.913452,604.969971 651.283508,602.575806
	C648.499634,600.041565 644.972290,599.836609 641.409363,599.977173
	C636.870361,600.156311 632.453186,600.927795 628.394592,603.039734
	C625.432617,604.581055 623.872314,603.508240 622.584412,600.721558
	C621.240173,597.812866 622.120239,596.376770 624.761780,594.736877
	C633.311951,589.429016 642.582886,589.623352 651.848022,591.114502
	C659.278259,592.310303 664.557190,598.189148 665.444031,605.820618
	C667.003662,619.241760 666.218994,632.742798 665.999634,646.662720
M648.959839,620.416138
	C644.194641,620.554871 639.340820,619.599487 634.728088,621.606079
	C631.010254,623.223450 629.093384,625.894287 629.112000,630.095947
	C629.130371,634.248718 630.926514,637.013000 634.642151,638.669800
	C642.514893,642.180420 653.656677,635.769836 654.678528,627.237732
	C655.143005,623.360229 654.358765,620.641174 648.959839,620.416138
z"/>
<path opacity="1.000000" stroke="none"
	d="
M735.339844,631.996948
	C735.338806,636.325378 735.176758,640.163086 735.379761,643.981384
	C735.580750,647.761597 733.545715,648.540588 730.426208,648.269470
	C727.463867,648.011902 723.745605,649.206299 723.645630,644.063904
	C723.451477,634.081726 723.013062,624.104553 722.780090,614.122864
	C722.560913,604.734192 719.351990,600.881958 711.247559,600.552856
	C702.964478,600.216492 696.781372,605.596924 696.435120,613.998962
	C696.051392,623.310425 696.177185,632.641907 695.981445,641.962524
	C695.864746,647.520447 690.709717,650.453186 685.673706,647.969299
	C684.020020,647.153687 683.912537,645.645386 683.910645,644.151062
	C683.889526,627.835449 683.944153,611.519653 683.871826,595.204346
	C683.855286,591.482971 685.909973,590.673096 688.996704,590.889832
	C691.797974,591.086609 695.475952,589.901733 695.312561,594.857056
	C695.285645,595.674438 695.402222,596.496582 695.515503,598.343567
	C699.997070,594.107788 704.647339,591.629272 709.997314,590.263000
	C720.077393,587.688660 734.054138,594.503052 734.743652,607.056396
	C735.191589,615.212463 735.086121,623.353271 735.339844,631.996948
z"/>
<path opacity="1.000000" stroke="none"
	d="
M466.425629,645.602783
	C461.104584,640.177307 462.630127,633.441772 462.152832,627.322205
	C461.611267,620.377930 461.958649,613.358948 462.039001,606.373840
	C462.074097,603.322876 461.524017,601.076965 457.750458,601.279175
	C455.340393,601.408325 454.481873,599.864441 454.710419,597.746704
	C454.956970,595.462952 453.386566,591.617310 456.687378,591.396423
	C463.082916,590.968567 462.083313,586.819580 462.024689,582.943604
	C461.966217,579.080627 462.414673,576.067749 467.492584,576.068604
	C473.395020,576.069580 474.214172,576.581116 474.286896,582.307373
	C474.396393,590.924561 473.068085,591.126343 482.447632,590.812866
	C486.984100,590.661194 488.214050,592.717957 488.116791,596.820251
	C488.035431,600.252930 486.666992,601.388672 483.275543,601.427307
	C474.299316,601.529480 474.295898,601.663452 474.303101,610.548584
	C474.308746,617.534668 474.450653,624.523315 474.299988,631.505859
	C474.196960,636.278931 476.265533,638.269348 480.958160,637.678650
	C484.208649,637.269531 487.063599,636.843262 487.624481,641.712708
	C488.145111,646.232666 486.065063,647.536316 482.361420,648.473022
	C476.687622,649.907959 471.495514,649.330994 466.425629,645.602783
z"/>
<path opacity="1.000000" stroke="none"
	d="
M583.940186,619.968262
	C583.958496,604.020996 583.628784,588.572571 584.540588,573.119507
	C584.832336,568.174072 587.645691,568.091492 591.098572,567.815491
	C594.984802,567.505005 596.359253,569.144897 596.335266,573.029480
	C596.214111,592.644592 596.350281,612.261292 596.252502,631.876648
	C596.229980,636.392334 596.749023,639.699158 602.574585,638.047424
	C604.638062,637.462341 605.861572,638.871094 606.059143,640.652222
	C606.333618,643.126526 607.616577,646.030090 604.263672,647.663147
	C594.278809,652.526306 583.222473,645.965698 584.473450,636.867310
	C585.208008,631.524658 584.178284,625.939392 583.940186,619.968262
z"/>
<path opacity="1.000000" stroke="none"
	d="
M368.580322,613.000549
	C368.579071,606.683167 368.770203,600.857117 368.514435,595.050781
	C368.317200,590.574524 371.138123,590.901550 374.057770,590.863464
	C377.087036,590.823853 379.524811,590.799133 379.478271,595.170227
	C379.303040,611.623230 379.371063,628.080322 379.520020,644.534363
	C379.562958,649.278870 376.324768,648.221497 373.683624,648.323425
	C370.960327,648.428528 368.380157,648.637390 368.471344,644.414429
	C368.693726,634.113770 368.566681,623.805542 368.580322,613.000549
z"/>
<path opacity="1.000000" stroke="none"
	d="
M379.642029,570.317810
	C382.453735,574.003784 382.476349,577.339478 379.478271,580.484375
	C377.205017,582.868896 374.568146,583.806702 371.374420,582.276062
	C367.233673,580.291504 365.580597,576.132263 367.485779,572.356079
	C369.673676,568.019531 374.080292,567.164307 379.642029,570.317810
z"/>
<path opacity="1.000000" stroke="none"
	d="
M517.331909,393.372131
	C518.348755,421.440460 518.141235,449.075592 518.404480,476.705170
	C518.453552,481.856598 518.936523,487.006927 519.309570,492.151215
	C519.614624,496.357666 517.194153,498.759155 513.556396,498.815338
	C509.518860,498.877716 507.874603,495.572479 508.075073,491.869019
	C508.721863,479.919983 509.468872,467.973694 510.405884,456.044281
	C510.816833,450.812439 511.085815,445.784576 507.793579,441.221191
	C506.640503,439.622925 505.802399,437.769287 505.590088,435.709900
	C504.100250,421.256378 505.182129,407.151276 511.464447,393.807983
	C513.192566,390.137573 513.505188,390.048798 516.594727,388.185669
	C517.838684,389.612610 517.117310,391.346405 517.331909,393.372131
z"/>
</svg>