<svg xmlns="http://www.w3.org/2000/svg" viewBox="430 357.5 165 165" fill="#7EDC00">
	<path opacity="1.000000" stroke="none"
	d="
M482.807892,515.343018
	C458.181244,504.168671 441.315674,485.969727 436.017914,459.946198
	C427.154663,416.408417 449.773651,377.492340 492.985413,365.939728
	C540.271851,353.297821 585.966064,386.432190 591.526367,433.753265
	C596.152405,473.122955 568.503723,511.437683 529.610657,519.455505
	C514.141541,522.644470 498.109985,522.958435 482.807892,515.343018
M568.746338,467.247620
	C582.036926,437.360931 570.190552,399.348480 535.687073,385.657806
	C501.346283,372.031616 467.057739,389.792999 455.388947,421.750885
	C444.766510,450.843018 458.333496,482.027618 481.406281,493.748901
	C481.619629,493.115570 481.950348,492.518311 482.011993,491.894501
	C483.568817,476.139191 484.146332,460.340729 484.021362,444.513794
	C484.009094,442.960724 483.556091,441.516479 482.294373,440.515900
	C478.494812,437.502838 477.922607,433.260437 477.735748,428.846527
	C477.432037,421.671448 478.174164,414.545563 478.758545,407.414551
	C478.890076,405.809479 479.030670,404.066620 481.573059,403.237244
	C484.340210,409.946930 482.418549,417.023254 483.505951,424.206970
	C484.608398,417.056183 482.568481,409.921051 485.984192,403.380157
	C488.899445,404.632935 488.757690,406.982941 488.833801,409.051727
	C488.919098,411.370575 488.583313,413.702026 488.509674,416.030487
	C488.447113,418.008911 488.496765,419.990875 488.496765,421.971252
	C490.708160,415.922546 488.196442,409.328003 491.767487,403.548645
	C494.069153,409.478424 493.219238,415.725739 494.528015,421.673309
	C494.700684,418.508972 494.519562,415.341522 494.752716,412.204895
	C494.975647,409.205902 493.635834,405.639435 496.957733,403.408478
	C498.258026,404.240417 498.229919,405.287933 498.404510,406.256531
	C499.954346,414.856415 499.359039,423.526306 499.096466,432.167419
	C499.010315,435.002808 497.970978,437.968658 495.570953,439.652344
	C492.160278,442.044952 491.968781,445.269318 491.985077,448.871552
	C492.057434,464.857391 493.474335,480.772614 494.340332,496.716949
	C494.514252,499.919403 496.036133,501.556885 499.150421,502.023560
	C508.101562,503.364960 517.032959,503.226471 526.011047,502.173676
	C530.525452,501.644348 532.305908,499.195801 532.571716,494.977661
	C533.554871,479.374359 534.520691,463.769257 535.662659,448.177246
	C535.937500,444.423859 534.770874,441.877655 531.598999,439.829132
	C527.405823,437.121002 525.087708,432.956146 525.185608,428.026703
	C525.335449,420.482300 526.741577,413.111053 530.705139,406.505615
	C535.284302,398.874115 542.291870,398.784302 547.343872,406.223694
	C550.811890,411.330597 551.934631,417.226349 552.901978,423.151825
	C554.073853,430.330292 552.286133,436.454803 545.904297,440.512604
	C543.158203,442.258667 542.201172,444.379639 542.351135,447.551758
	C542.807190,457.197815 542.960999,466.857971 543.397949,476.505157
	C543.650085,482.069977 544.221802,487.620270 544.722107,494.119263
	C556.003540,487.428650 563.162109,478.548553 568.746338,467.247620
z"/>

<path opacity="1.000000" stroke="none"
	d="
M517.331909,393.372131
	C518.348755,421.440460 518.141235,449.075592 518.404480,476.705170
	C518.453552,481.856598 518.936523,487.006927 519.309570,492.151215
	C519.614624,496.357666 517.194153,498.759155 513.556396,498.815338
	C509.518860,498.877716 507.874603,495.572479 508.075073,491.869019
	C508.721863,479.919983 509.468872,467.973694 510.405884,456.044281
	C510.816833,450.812439 511.085815,445.784576 507.793579,441.221191
	C506.640503,439.622925 505.802399,437.769287 505.590088,435.709900
	C504.100250,421.256378 505.182129,407.151276 511.464447,393.807983
	C513.192566,390.137573 513.505188,390.048798 516.594727,388.185669
	C517.838684,389.612610 517.117310,391.346405 517.331909,393.372131
z"/>
</svg>